<svg width="16" height="16" viewBox="0 0 16 16" fill="none" xmlns="http://www.w3.org/2000/svg">
<path fill-rule="evenodd" clip-rule="evenodd" d="M4.64598 1.64604C4.69242 1.59948 4.7476 1.56253 4.80834 1.53733C4.86909 1.51212 4.93421 1.49915 4.99998 1.49915C5.06575 1.49915 5.13087 1.51212 5.19161 1.53733C5.25236 1.56253 5.30753 1.59948 5.35398 1.64604L11.354 7.64604C11.4005 7.69248 11.4375 7.74766 11.4627 7.80841C11.4879 7.86915 11.5009 7.93427 11.5009 8.00004C11.5009 8.06581 11.4879 8.13093 11.4627 8.19167C11.4375 8.25242 11.4005 8.30759 11.354 8.35404L5.35398 14.354C5.26009 14.4479 5.13275 14.5007 4.99998 14.5007C4.8672 14.5007 4.73986 14.4479 4.64598 14.354C4.55209 14.2602 4.49935 14.1328 4.49935 14C4.49935 13.8673 4.55209 13.7399 4.64598 13.646L10.293 8.00004L4.64598 2.35404C4.59941 2.30759 4.56247 2.25242 4.53727 2.19167C4.51206 2.13093 4.49908 2.06581 4.49908 2.00004C4.49908 1.93427 4.51206 1.86915 4.53727 1.80841C4.56247 1.74766 4.59941 1.69249 4.64598 1.64604V1.64604Z" fill="#4E4E4E"/>
</svg>
