<svg width="16" height="16" viewBox="0 0 16 16" fill="none" xmlns="http://www.w3.org/2000/svg">
<path fill-rule="evenodd" clip-rule="evenodd" d="M11.354 1.64598C11.4006 1.69242 11.4375 1.7476 11.4628 1.80834C11.488 1.86909 11.5009 1.93421 11.5009 1.99998C11.5009 2.06575 11.488 2.13087 11.4628 2.19161C11.4375 2.25236 11.4006 2.30753 11.354 2.35398L5.70704 7.99998L11.354 13.646C11.4479 13.7399 11.5007 13.8672 11.5007 14C11.5007 14.1328 11.4479 14.2601 11.354 14.354C11.2602 14.4479 11.1328 14.5006 11 14.5006C10.8673 14.5006 10.7399 14.4479 10.646 14.354L4.64604 8.35398C4.59948 8.30753 4.56253 8.25236 4.53733 8.19161C4.51212 8.13087 4.49915 8.06575 4.49915 7.99998C4.49915 7.93421 4.51212 7.86909 4.53733 7.80834C4.56253 7.7476 4.59948 7.69242 4.64604 7.64598L10.646 1.64598C10.6925 1.59942 10.7477 1.56247 10.8084 1.53727C10.8692 1.51206 10.9343 1.49908 11 1.49908C11.0658 1.49908 11.1309 1.51206 11.1917 1.53727C11.2524 1.56247 11.3076 1.59942 11.354 1.64598V1.64598Z" fill="#4E4E4E"/>
</svg>
