<svg width="20" height="20" viewBox="0 0 20 20" fill="none" xmlns="http://www.w3.org/2000/svg">
<g clip-path="url(#clip0_414_6374)">
<path d="M10.0142 0C4.49667 0 0.0241699 4.4725 0.0241699 9.98917C0.0241699 14.2217 2.65584 17.8367 6.3725 19.2908C6.285 18.5 6.20667 17.2883 6.40667 16.425C6.58917 15.6442 7.57834 11.4608 7.57834 11.4608C7.57834 11.4608 7.27917 10.8608 7.27917 9.97667C7.27917 8.59083 8.085 7.55083 9.08584 7.55083C9.93917 7.55083 10.3508 8.19167 10.3508 8.9575C10.3508 9.815 9.80667 11.0967 9.52417 12.2842C9.28667 13.2783 10.0242 14.0883 11.0033 14.0883C12.7767 14.0883 14.1433 12.2175 14.1433 9.51583C14.1433 7.13167 12.4242 5.45833 9.97 5.45833C7.12834 5.45833 5.4625 7.59333 5.4625 9.79083C5.4625 10.6517 5.79084 11.5767 6.20334 12.075C6.28584 12.175 6.29667 12.2625 6.27417 12.3625C6.19917 12.675 6.03 13.3617 5.99584 13.4983C5.95167 13.6858 5.8525 13.7242 5.66167 13.6358C4.41584 13.0608 3.63417 11.2375 3.63417 9.76417C3.63417 6.6175 5.92417 3.72083 10.2342 3.72083C13.6992 3.72083 16.3942 6.19333 16.3942 9.49C16.3942 12.9358 14.2217 15.7083 11.2 15.7083C10.1883 15.7083 9.23834 15.1842 8.90167 14.5592L8.2775 16.9325C8.05334 17.8033 7.44084 18.8925 7.02917 19.5542C7.965 19.8417 8.95084 20 9.9875 20C15.4933 20 19.975 15.5292 19.975 10.0108C19.975 4.49167 15.4933 0.0216667 9.9875 0.0216667L10.0142 0Z" fill="#FF9D80"/>
</g>
<defs>
<clipPath id="clip0_414_6374">
<rect width="20" height="20" fill="white"/>
</clipPath>
</defs>
</svg>
