<svg width="311" height="110" viewBox="0 0 311 110" fill="none" xmlns="http://www.w3.org/2000/svg">
<path d="M211.743 93.799H216.728C220.677 93.7947 224.463 92.2343 227.255 89.46C230.047 86.6857 231.618 82.9242 231.622 79.0008C231.622 70.8405 224.941 64.0795 216.728 64.0795H203.285V64.4935H206.4V107.317H203.143V107.731H212.756V107.317H208.387V88.6372C212.605 99.9959 228.455 107.808 235.197 107.808V107.414C232.292 107.414 226.477 105.67 220.572 101.845C216.924 99.4819 213.936 96.744 211.743 93.799ZM208.387 87.4717V64.4935H216.728C224.722 64.4935 229.635 71.0582 229.635 79.0008C229.635 86.9434 224.722 93.3992 216.728 93.3992C216.424 93.3992 212.571 93.3992 211.457 93.3992C210.137 91.5895 209.101 89.5908 208.387 87.4717ZM66.707 64.0902L67.6862 66.6496L60.2775 88.2659C56.6001 87.0165 51.3166 85.9135 47.2835 85.9135H27.4018V86.3276H45.2804C45.1816 98.2968 36.1291 108.638 23.5717 108.608C12.8216 108.581 3.90022 100.499 2.29057 89.9383C0.111433 75.6596 9.71005 63.2174 23.6328 63.2174C29.4426 63.2174 34.4997 65.3842 38.2633 68.9467C38.4409 69.1155 38.5636 69.333 38.6158 69.5716C38.668 69.8101 38.6472 70.0587 38.5562 70.2854L37.5304 72.827L37.8897 72.9876L40.1622 69.1431L39.652 68.6737C36.4433 65.7254 32.4742 63.7195 28.1863 62.8793C23.8983 62.039 19.4598 62.3973 15.3647 63.9143C11.2695 65.4312 7.67836 68.0474 4.9908 71.4716C2.30323 74.8958 0.624699 78.9938 0.14198 83.3094C-1.39401 97.4097 9.73699 109.391 23.6292 109.391C36.5854 109.391 47.1344 98.6698 47.253 86.3294C51.313 86.3294 56.415 87.5199 60.1427 88.6497L53.6125 107.703H54.446L60.829 88.8585C64.0458 89.8737 67.1544 91.2008 70.1096 92.8209C75.3536 95.7141 79.2358 99.1196 81.476 102.723L83.3982 107.753H85.2468L68.2952 64.083L66.707 64.0902ZM60.9583 88.4748L68.0383 67.5706L80.8561 101.085C76.5949 95.3893 68.7353 90.9218 60.9583 88.4676V88.4748ZM289.072 64.0795H275.464V64.4935H278.611V107.317H275.464V107.731H289.072C301.164 107.731 311 97.7578 311 85.7457C311 73.7337 301.164 64.0795 289.072 64.0795ZM289.072 107.317C288.695 107.317 283.922 107.317 280.596 107.317V64.4935C283.983 64.4846 288.695 64.4935 289.072 64.4935C300.9 64.4935 309.333 73.9943 309.333 85.7457C309.333 97.4972 300.9 107.317 289.072 107.317ZM149.602 64.0795H158.101V64.4935H154.844V107.294H158.101V107.689H149.602V107.294H152.859V86.3204H130.615V107.294H133.867V107.689H125.368V107.294H128.625V64.4935H125.368V64.0795H133.867V64.4935H130.615V85.9117H152.859V64.4935H149.602V64.0795ZM116.107 69.4554L117.036 75.6435L116.646 75.7202C116.646 75.7202 115.209 70.164 114.91 69.2609C114.116 66.8942 113.884 64.5257 109.341 64.5257H102.931V107.294H106.188V107.689H97.6892V107.294H100.944V64.5167H94.5238C89.9661 64.5167 89.7577 66.8852 88.9637 69.2519C88.6601 70.1551 87.2265 75.7113 87.2265 75.7113L86.8384 75.6346L87.7672 69.4465L88.5667 64.1223H115.304L116.107 69.4554ZM268.766 95.9907L269.156 96.0675L268.228 102.256L267.428 107.74H240.711V107.326H244.124V64.4935H241.117V64.0795H264.651L265.45 69.3269L266.375 75.5239L265.987 75.6007C265.987 75.6007 264.55 70.0444 264.25 69.1413C263.456 66.7746 263.215 64.5007 258.69 64.5007H246.115V85.9189H256.441V86.3329H246.115V107.317H261.473C265.998 107.317 266.239 104.808 267.033 102.441C267.335 101.538 268.766 95.9818 268.766 95.9818V95.9907ZM195.91 95.9907L196.298 96.0675L195.369 102.256L194.57 107.74H167.853V107.326H171.266V64.4935H168.248V64.0795H191.782L192.579 69.3269L193.51 75.5168L193.12 75.5935C193.12 75.5935 191.683 70.0373 191.383 69.1342C190.589 66.7674 190.348 64.4935 185.823 64.4935H173.247V85.9117H183.574V86.3258H173.247V107.317H188.606C193.131 107.317 193.372 104.808 194.175 102.441C194.477 101.538 195.91 95.9818 195.91 95.9818V95.9907ZM204.248 39.827C199.995 44.0517 194.514 46.9092 187.761 46.7682C177.299 46.5523 168.657 38.7168 166.956 28.4575C164.563 14.0288 174.205 1.38313 188.243 1.38313C193.991 1.38313 198.998 3.50174 202.746 6.9929C202.962 7.19557 203.113 7.45845 203.177 7.74724C203.241 8.03603 203.216 8.33731 203.105 8.61176L202.133 10.9981L202.492 11.1605L204.767 7.31596L204.257 6.84654C201.048 3.8983 197.079 1.89243 192.791 1.05216C188.503 0.21189 184.064 0.570176 179.969 2.08715C175.874 3.60412 172.283 6.22027 169.595 9.64448C166.908 13.0687 165.229 17.1666 164.747 21.4823C163.211 35.5826 174.342 47.5643 188.234 47.5643C194.622 47.5643 200.426 44.9566 204.682 40.8336L204.248 39.827ZM95.7634 0.704883C81.043 -0.598056 68.764 11.6032 70.0737 26.2282C71.0797 37.4388 80.1645 46.4666 91.4518 47.4679C106.172 48.7726 118.453 36.5696 117.142 21.9446C116.134 10.7339 107.047 1.7044 95.7634 0.704883ZM93.9669 46.7789C79.9417 46.9878 70.1976 34.617 72.2294 20.3293C73.7331 9.76477 82.5215 1.55447 93.2591 1.39383C107.284 1.18322 117.03 13.5558 114.997 27.8435C113.486 38.408 104.699 46.6183 93.9597 46.7879L93.9669 46.7789ZM150.862 2.25949H158.092V2.67357H154.744V45.9186H153.368L129.403 4.08181V45.4903H132.816V45.9044H125.829V45.4903H129V4.20318C129 3.96351 128.917 3.7312 128.764 3.54551C128.612 3.35982 128.399 3.23214 128.163 3.18404L125.704 2.68249L125.722 2.28983L129.994 2.25949L154.347 44.3605V2.67357H150.862V2.25949ZM241.225 34.1618L241.614 34.2386L240.686 40.4267L239.886 45.9115H213.164V45.4974H216.577V2.67357H213.557V2.25949H237.091L237.89 7.50694L238.819 13.6968L238.429 13.7735C238.429 13.7735 236.992 8.21552 236.694 7.31417C235.9 4.94568 235.659 2.67357 231.125 2.67357H218.549V24.0917H228.901V24.5058H218.573V45.4974H233.931C238.458 45.4974 238.699 42.9879 239.5 40.6212C239.787 39.7181 241.221 34.1618 241.221 34.1618H241.225Z" fill="#272525"/>
</svg>
