<svg width="33" height="35" viewBox="0 0 33 35" fill="none" xmlns="http://www.w3.org/2000/svg">
<path d="M32.4798 10.4819C32.5309 10.3292 32.4725 10.1837 32.4422 10.0377C32.4142 9.93618 32.3766 9.83747 32.3298 9.74291C32.2736 9.603 32.2107 9.46531 32.1506 9.32429C32.0945 9.19604 32.0344 9.06946 31.9821 8.93899C31.9299 8.80852 31.8995 8.66139 31.8406 8.53314C31.7757 8.39482 31.7006 8.2614 31.6159 8.13396C31.5774 8.07298 31.5236 8.02287 31.4597 7.9885C31.3142 7.91688 31.1474 7.89134 31.0497 7.73422C30.9452 7.56766 30.825 7.41054 30.7031 7.25342C30.6718 7.21111 30.6277 7.17964 30.5773 7.16348C30.4402 7.12795 30.3009 7.11518 30.1897 7.00636C30.1335 6.95084 30.0459 6.93585 29.9773 6.89532C29.9469 6.87456 29.9249 6.84391 29.915 6.80871C29.8886 6.71433 29.8959 6.60051 29.8437 6.52667C29.7813 6.43895 29.8071 6.36012 29.8285 6.29127C29.8948 6.08363 29.8375 5.89042 29.6504 5.77161C29.6294 5.806 29.6053 5.83851 29.5785 5.86877C29.5353 5.91096 29.4808 5.94261 29.4392 5.98647C29.3606 6.06753 29.2875 6.15303 29.2145 6.23797C29.2095 6.24408 29.1999 6.25019 29.1999 6.25574C29.1999 6.38343 29.0724 6.4062 29.0056 6.47115C28.9269 6.54777 28.7994 6.57498 28.6904 6.62439C28.7073 6.70878 28.6837 6.75153 28.5905 6.72321C28.5773 6.71733 28.5627 6.71503 28.5483 6.71655C28.4253 6.75153 28.3 6.78206 28.1798 6.82759C28.09 6.85979 28.0113 6.9142 27.9203 6.95084C27.817 6.99359 27.7091 7.02579 27.6041 7.06188C27.4805 7.10741 27.3603 7.16237 27.235 7.19957C26.991 7.26613 26.7549 7.35826 26.5306 7.47439C26.4643 7.5068 26.3949 7.53247 26.3234 7.55101C26.1784 7.59709 26.0324 7.64039 25.8869 7.68536C25.8834 7.68623 25.8801 7.68795 25.8774 7.69036C25.7757 7.77031 25.7038 7.88912 25.5639 7.91965C25.5465 7.92354 25.5336 7.94797 25.5179 7.9624C25.4308 8.0418 25.342 8.12063 25.2561 8.20169C25.2387 8.22207 25.2245 8.2449 25.214 8.26943C25.1746 8.34604 25.1426 8.42766 25.0966 8.49983C25.0696 8.54203 25.0162 8.5659 24.9842 8.60421C24.8719 8.72746 24.7627 8.85256 24.6567 8.97952C24.6294 9.01919 24.6057 9.06118 24.586 9.10499C24.573 9.1019 24.5593 9.10388 24.5478 9.11054C24.4523 9.1866 24.3602 9.26711 24.2669 9.34373C24.2141 9.38647 24.1546 9.42034 24.1035 9.4642C24.0116 9.5505 23.949 9.66279 23.9243 9.78566C23.8681 10.0038 23.7833 10.2154 23.7097 10.4297C23.6833 10.5074 23.6361 10.5751 23.6535 10.6695C23.6647 10.725 23.6159 10.7856 23.6131 10.8444C23.6086 10.9587 23.6119 11.0731 23.6232 11.187C23.6355 11.2444 23.6543 11.3003 23.6794 11.3535C23.666 11.4497 23.6739 11.5476 23.7024 11.6406C23.289 11.7894 20.5337 12.862 17.0303 16.0022C16.9823 16.0351 16.9388 16.0741 16.9011 16.1182C15.8869 17.0406 14.9288 18.0215 14.0318 19.0557C14.047 19.0157 14.0627 18.9758 14.0762 18.9352C14.1419 18.7153 14.167 18.4855 14.1504 18.2568C14.1409 18.0194 14.1053 17.7837 14.0442 17.5539C14.0306 17.4943 14.0201 17.4341 14.0127 17.3735C13.9973 17.1857 13.9228 17.0073 13.7998 16.8633C13.7482 16.8017 13.7188 16.725 13.7161 16.6451C13.7105 16.3331 13.724 16.0205 13.7229 15.7079C13.7229 15.5658 13.6965 15.4242 13.6971 15.2821C13.6934 15.1377 13.6676 14.9947 13.6207 14.8579C13.6008 14.7991 13.5585 14.7503 13.5027 14.7219C13.4645 14.6958 13.3982 14.7369 13.3904 14.783C13.3864 14.8157 13.3769 14.8479 13.3701 14.8807H13.3516C13.3643 14.911 13.3725 14.943 13.3757 14.9756C13.3679 15.1505 13.3561 15.3254 13.3443 15.5008C13.3426 15.5221 13.3386 15.5431 13.3325 15.5636C13.3028 15.647 13.2812 15.7331 13.2679 15.8206C13.2617 15.945 13.1522 16.0477 13.1966 16.1804C13.1994 16.1881 13.1797 16.212 13.1685 16.2137C13.087 16.227 13.0792 16.2925 13.0561 16.353C13.0331 16.4136 13.0045 16.4852 12.9752 16.5496C12.9286 16.6523 12.8764 16.7522 12.8337 16.856C12.8213 16.8855 12.8494 16.9432 12.8337 16.9565C12.7118 17.0565 12.755 17.2075 12.7146 17.3302C12.6486 17.5574 12.5959 17.7882 12.5568 18.0214C12.5385 18.108 12.5284 18.1961 12.5264 18.2846C12.5219 18.5444 12.5264 18.8048 12.5214 19.0646C12.5214 19.1551 12.4955 19.245 12.4961 19.335C12.4961 19.5193 12.4995 19.7047 12.5854 19.8757C12.6483 20.0018 12.6831 20.1411 12.8101 20.2327C12.8586 20.2705 12.9028 20.3133 12.9421 20.3604C11.4622 22.231 10.1353 24.215 8.97412 26.2938C5.22689 24.5705 2.46998 21.0072 1.81502 16.7356C0.562382 8.56423 6.08408 1.44554 14.0908 1.44554C17.433 1.44554 20.2697 2.77801 22.4363 4.81446C22.6458 5.01211 23.1631 5.5673 23.1631 5.5673L23.5996 4.83611L23.3069 4.5674C21.9548 3.32877 20.3611 2.37595 18.6234 1.76726C16.8857 1.15858 15.0406 0.906852 13.2011 1.02748C6.59412 1.44554 1.29486 6.43729 0.582043 12.9414C-0.0920198 19.0835 3.4558 24.5183 8.71067 26.7657C7.45082 29.0763 6.35198 31.4692 5.42181 33.9277L5.37519 34.0493L5.62178 34.1414L5.66841 34.0198C6.59731 31.5646 7.69543 29.1752 8.95502 26.8684C10.5851 27.5292 12.3301 27.8687 14.0919 27.8678C21.5437 27.8678 27.6108 21.7329 27.6794 14.6719H26.5419C26.4857 21.5208 21.2786 27.438 14.0554 27.4208C12.3874 27.4179 10.7381 27.0731 9.21173 26.4081C10.3639 24.3465 11.68 22.3786 13.1477 20.5231C13.1802 20.5229 13.2119 20.5132 13.2388 20.4953C13.2657 20.4773 13.2866 20.4518 13.2988 20.4221C13.3482 20.3243 13.4078 20.2322 13.4639 20.1378L13.4785 20.1139C14.4793 18.8854 15.5619 17.7244 16.7191 16.6384C16.7291 16.6531 16.7416 16.6659 16.7562 16.6762C16.8123 16.7128 16.8573 16.7617 16.9129 16.7955C17.014 16.8572 17.1157 16.9493 17.2241 16.9621C17.3471 16.98 17.4657 17.0201 17.574 17.0803C17.9672 17.2741 18.3902 17.3119 18.8171 17.3174C18.9766 17.3174 19.1356 17.2586 19.2991 17.283C19.4401 17.2945 19.5798 17.3175 19.717 17.3518C19.9978 17.4418 20.2725 17.4773 20.5596 17.3713C20.6455 17.3391 20.7472 17.3479 20.8404 17.3385C21.0865 17.3146 21.3325 17.293 21.5785 17.2658C21.6499 17.258 21.7212 17.2191 21.7909 17.2225C21.9088 17.228 22.0245 17.258 22.1065 17.137C22.1183 17.1192 22.1554 17.1187 22.2099 17.0998C22.1453 17.0514 22.0843 16.9986 22.0273 16.9415C21.8324 16.7115 21.5837 16.532 21.3027 16.4186C21.1342 16.3497 21.0157 16.2209 20.8966 16.0977C20.723 15.9178 20.5511 15.7523 20.2815 15.7246C20.1316 15.7029 19.9837 15.6698 19.8389 15.6257C19.6271 15.5702 19.4182 15.5064 19.2064 15.4503C19.1238 15.4281 19.0379 15.4175 18.9531 15.3987C18.7208 15.344 18.4793 15.3401 18.2453 15.387C18.2043 15.3953 18.1622 15.4009 18.1206 15.4059C21.2437 12.8203 23.5794 11.9637 23.8142 11.881C23.8782 11.9518 23.9504 12.015 24.0293 12.0692C24.1343 12.1291 24.254 12.2019 24.3691 12.1985C24.6635 12.1902 24.9472 12.2146 25.2207 12.3262C25.3864 12.3934 25.5538 12.4572 25.7139 12.5361C25.9948 12.6749 26.2633 12.8337 26.5458 12.9658C26.7598 13.0663 26.9856 13.1424 27.2086 13.224C27.3176 13.2634 27.4333 13.285 27.5417 13.3239C27.6333 13.3561 27.7175 13.4089 27.8097 13.4383C27.9568 13.4849 28.1113 13.5116 28.259 13.5621C28.391 13.6076 28.5298 13.6082 28.6635 13.642C28.8595 13.6807 29.059 13.6993 29.2589 13.6976C29.5544 13.7081 29.851 13.7087 30.147 13.7087C30.2099 13.7009 30.2723 13.69 30.334 13.6759C30.57 13.6509 30.8081 13.6387 31.0424 13.6032C31.2227 13.576 31.3979 13.5188 31.5766 13.4788C31.7164 13.4477 31.8574 13.4233 31.9973 13.3933C32.0226 13.3878 32.0579 13.3672 32.063 13.3472C32.0906 13.2605 32.1061 13.1705 32.1091 13.0796C32.1046 12.9414 32.0759 12.802 32.0585 12.6671C32.0554 12.6503 32.0565 12.6329 32.0619 12.6166C32.1119 12.4883 32.1624 12.3612 32.2152 12.2346C32.2282 12.2024 32.2585 12.1747 32.2619 12.1425C32.2838 11.9343 32.2989 11.7255 32.318 11.5173C32.327 11.4279 32.3427 11.3391 32.3551 11.2503C32.3675 11.1614 32.3781 11.0615 32.3939 10.9682C32.4051 10.9049 32.4034 10.82 32.4439 10.785C32.527 10.7134 32.4972 10.644 32.4798 10.5663C32.4721 10.5386 32.4721 10.5095 32.4798 10.4819ZM12.9455 20.0512C12.8797 19.9578 12.8247 19.8574 12.7814 19.7519C12.7619 19.6933 12.7533 19.6315 12.7562 19.5698C12.7562 19.4643 12.7326 19.3478 12.7663 19.2556C12.8028 19.1518 12.7545 19.0668 12.7595 18.973C12.7719 18.7171 12.7814 18.46 12.7781 18.2041C12.7781 18.0447 12.8286 17.8993 12.8674 17.7516C12.8837 17.6877 12.9573 17.6289 12.9432 17.5584C12.9219 17.4512 12.9516 17.3529 12.9651 17.2508C12.9651 17.2419 12.9578 17.2308 12.9612 17.223C13.0089 17.1031 13.0617 16.9848 13.1061 16.8638C13.1275 16.805 13.123 16.7356 13.1494 16.68C13.1898 16.6049 13.2354 16.5325 13.2859 16.4635C13.2909 16.4558 13.3016 16.4474 13.301 16.4402C13.2876 16.2376 13.5016 16.1015 13.4656 15.8922C13.4656 15.8789 13.4802 15.8622 13.5094 15.8511C13.5055 15.9894 13.4931 16.1287 13.4999 16.2648C13.5094 16.453 13.4645 16.6451 13.5313 16.8288C13.5485 16.8885 13.5758 16.9449 13.6122 16.9954C13.7291 17.1342 13.7712 17.2952 13.7937 17.4712C13.8139 17.6311 13.8616 17.7882 13.888 17.9481C13.9102 18.0779 13.9237 18.2091 13.9285 18.3406C13.9324 18.4611 13.9161 18.5821 13.9105 18.7026C13.9021 18.8781 13.8043 19.0219 13.742 19.1768C13.7027 19.2711 13.6504 19.3594 13.6111 19.4543C13.6063 19.4829 13.6085 19.5122 13.6173 19.5399L13.6122 19.5454L13.5948 19.5399L13.5078 19.6698C13.364 19.843 13.219 20.0195 13.0747 20.1994C13.0224 20.1586 12.9786 20.1083 12.9455 20.0512ZM29.9066 7.33726C29.9177 7.32446 29.9265 7.30979 29.9324 7.29395C29.9802 7.18291 30.0088 7.16848 30.1183 7.22178C30.2137 7.26309 30.3057 7.31153 30.3936 7.36668C30.465 7.42389 30.532 7.48624 30.5941 7.55323C30.6194 7.5771 30.6503 7.59709 30.6728 7.62207C30.7351 7.68592 30.8121 7.7431 30.8508 7.81916C30.8767 7.89137 30.8848 7.96865 30.8744 8.04457C30.8688 8.1917 30.8592 8.33883 30.8407 8.48484C30.8267 8.55941 30.8276 8.63599 30.8435 8.7102C30.8594 8.78441 30.89 8.8548 30.9334 8.91734C30.9935 9.00395 30.9851 9.13941 30.9969 9.25545C31.0193 9.4692 30.9407 9.67129 30.9053 9.87727C30.884 9.99497 30.8328 10.1066 30.807 10.2237C30.7716 10.3855 30.7048 10.5389 30.6104 10.6756C30.5648 10.7582 30.5272 10.8448 30.4981 10.9344C30.4711 10.8999 30.4385 10.8761 30.4318 10.8466C30.3992 10.7067 30.302 10.6085 30.2206 10.4974C30.147 10.3969 30.0947 10.2803 30.0195 10.181C29.9352 10.0699 29.8538 9.92335 29.7386 9.88282C29.6072 9.83674 29.5662 9.69516 29.4415 9.67629C29.3589 9.66407 29.3246 9.57968 29.2583 9.57246C29.1022 9.55581 28.9938 9.43755 28.8489 9.40591C28.8146 9.39758 28.7741 9.4209 28.7365 9.41923C28.6775 9.41923 28.6185 9.40591 28.5596 9.39813C28.5719 9.35261 28.5708 9.29376 28.6 9.26378C28.6865 9.1755 28.6713 9.0689 28.6815 8.96453C28.6884 8.93242 28.7048 8.90305 28.7286 8.88014C28.7584 8.83914 28.7858 8.7965 28.8107 8.75244C28.8581 8.66739 28.8989 8.57885 28.9325 8.48762C28.9955 8.29108 29.1336 8.15894 29.2898 8.03402C29.3511 7.97201 29.4062 7.90434 29.4544 7.83193C29.4903 7.78807 29.5291 7.74699 29.5667 7.7059L29.9066 7.33726ZM17.6414 15.8162C17.7538 15.7112 17.883 15.7429 17.9993 15.699C18.2357 15.6091 18.484 15.6274 18.7295 15.6257C18.9574 15.6296 19.1827 15.6734 19.3951 15.7551C19.5749 15.8184 19.7597 15.8661 19.9445 15.9128C20.0624 15.9411 20.1894 15.9394 20.3045 15.9744C20.3957 16.0048 20.4801 16.0526 20.5528 16.1149C20.6899 16.2259 20.8078 16.3653 20.9494 16.4724C21.0627 16.5544 21.1859 16.6221 21.3162 16.6739C21.4748 16.7496 21.6169 16.8555 21.7341 16.9854C21.537 17.0287 21.3555 17.0776 21.1724 17.1059C21.0494 17.1248 20.9213 17.1059 20.7972 17.1175C20.6961 17.1275 20.5978 17.1731 20.4972 17.1769C20.281 17.1869 20.0709 17.248 19.8451 17.1558C19.6889 17.092 19.5047 17.0337 19.3199 17.0815C19.3159 17.0815 19.3109 17.0865 19.3092 17.0853C19.1862 16.9871 19.0626 17.0776 18.9384 17.082C18.8143 17.0865 18.6834 17.0726 18.5559 17.0748C18.1762 17.0809 17.8352 16.9493 17.5004 16.7922C17.3498 16.7289 17.2026 16.658 17.0595 16.5796C16.9578 16.5185 16.9376 16.4646 16.9814 16.3941C17.163 16.2283 17.3426 16.0679 17.5201 15.9128C17.563 15.8837 17.6036 15.8514 17.6414 15.8162ZM24.9589 12.027C24.7489 12.0092 24.5388 11.9826 24.3281 11.9776C24.2892 11.9747 24.2512 11.9641 24.2164 11.9466C24.1816 11.9291 24.1506 11.9049 24.1254 11.8754C23.9877 11.7416 23.8569 11.5978 23.8445 11.3891C23.8338 11.2275 23.7782 11.0626 23.8001 10.9071C23.8265 10.7184 23.8355 10.5146 23.9686 10.352C23.9929 10.3077 24.0074 10.2589 24.0113 10.2087C24.0293 10.1349 24.0405 10.0588 24.0624 9.98664C24.083 9.90734 24.1126 9.8306 24.1506 9.7579C24.194 9.68372 24.2487 9.61666 24.313 9.55914C24.3984 9.48419 24.4972 9.42423 24.5888 9.35538C24.6135 9.33587 24.6349 9.31264 24.6522 9.28654C24.6861 9.22058 24.7413 9.16764 24.809 9.13608C24.8786 9.10888 24.9213 9.01561 24.9775 8.95509C25.0337 8.89457 25.0999 8.84794 25.146 8.78465C25.2022 8.70914 25.2387 8.61809 25.2977 8.54258C25.3894 8.42402 25.4902 8.31265 25.5993 8.20946C25.7515 8.07011 25.9156 7.94297 26.079 7.81639C26.1475 7.7642 26.2335 7.68425 26.3037 7.69313C26.3781 7.70288 26.4538 7.69252 26.5228 7.66315C26.6104 7.62984 26.6986 7.54823 26.7789 7.55656C26.9609 7.57599 27.0547 7.42442 27.2114 7.39666C27.2839 7.46884 27.3294 7.36335 27.3929 7.35336C27.4687 7.3417 27.5462 7.33837 27.5485 7.26008C27.6117 7.25329 27.6744 7.24235 27.7361 7.22733C27.8484 7.19124 27.958 7.1496 28.0664 7.10519C28.1748 7.06077 28.2911 6.9997 28.4073 6.95584C28.5433 6.90365 28.6882 6.87089 28.8208 6.81315C29.069 6.70656 29.3123 6.59108 29.4358 6.32514C29.4902 6.22585 29.5553 6.13276 29.6302 6.04754C29.642 6.032 29.6824 6.03144 29.7072 6.03644C29.7161 6.03644 29.7234 6.07863 29.7206 6.09973C29.7053 6.14672 29.6959 6.19538 29.6926 6.24464C29.7077 6.36234 29.6662 6.47948 29.7218 6.60107C29.7555 6.67547 29.7218 6.77818 29.7291 6.86756C29.7324 6.91142 29.7678 6.95195 29.7729 6.99581C29.7847 7.10685 29.7864 7.20734 29.6735 7.28229C29.6173 7.31838 29.6016 7.4061 29.5482 7.44552C29.4958 7.47406 29.4526 7.51657 29.4235 7.56822C29.3944 7.62926 29.3536 7.68413 29.3033 7.72978C29.2297 7.79918 29.2421 7.92687 29.0983 7.95907C29.0134 7.97795 28.9528 8.09621 28.8702 8.16172C28.7876 8.22723 28.7719 8.34771 28.7247 8.44376C28.6478 8.59921 28.5674 8.75244 28.4938 8.90845C28.4396 9.0088 28.3966 9.11474 28.3658 9.22436C28.3293 9.39092 28.1973 9.47808 28.0888 9.58745C28.0203 9.65741 27.9473 9.72348 27.8737 9.78899C27.8411 9.81786 27.7979 9.83618 27.7681 9.86727C27.737 9.90476 27.709 9.94468 27.6844 9.98664C27.6604 9.98684 27.6369 9.99295 27.6159 10.0044C27.5198 10.0849 27.4339 10.1793 27.335 10.2526C27.1542 10.3924 26.9921 10.5543 26.8525 10.7345C26.736 10.8822 26.628 11.0362 26.529 11.1959C26.4079 11.3803 26.2653 11.55 26.1043 11.7016C26.0133 11.7882 25.8869 11.8077 25.8004 11.8882C25.6544 12.0248 25.4594 12.0087 25.2864 12.0547C25.1848 12.0742 25.0679 12.0364 24.9589 12.027ZM31.9035 13.0713C31.8956 13.1124 31.8898 13.1539 31.8861 13.1957C31.7827 13.2356 31.6928 13.2756 31.6001 13.3067C31.5659 13.3172 31.5221 13.2934 31.4878 13.3011C31.2749 13.345 31.0631 13.3939 30.8508 13.4394C30.8176 13.4433 30.784 13.4433 30.7508 13.4394C30.7238 13.434 30.6962 13.4327 30.6688 13.4355C30.4441 13.506 30.2082 13.4644 29.9802 13.5121C29.8369 13.5421 29.6813 13.5238 29.5308 13.5121C29.3201 13.496 29.1078 13.4344 28.9011 13.451C28.6944 13.4677 28.5304 13.3866 28.3444 13.3633C28.1759 13.3417 28.0108 13.2617 27.8445 13.209C27.776 13.1873 27.7063 13.1696 27.6378 13.1496C27.5917 13.1362 27.5457 13.1235 27.5007 13.1079C27.403 13.0735 27.3047 13.0402 27.2081 13.0013C27.0957 12.9569 26.9879 12.9075 26.8789 12.8587C26.8149 12.8298 26.7536 12.7959 26.689 12.7676C26.5795 12.7187 26.4644 12.6782 26.3593 12.6249C26.1739 12.5333 25.9914 12.435 25.8088 12.3379C25.7557 12.3123 25.7058 12.2809 25.66 12.2441C25.6541 12.2303 25.6515 12.2154 25.6526 12.2006C25.6537 12.1857 25.6583 12.1713 25.6662 12.1586C25.8066 12.0975 25.9526 12.0475 26.0925 11.9853C26.1461 11.9576 26.1938 11.9199 26.2329 11.8743C26.4014 11.6939 26.57 11.5112 26.7385 11.3274C26.752 11.3124 26.7475 11.2819 26.7581 11.2625C26.8143 11.1609 26.8576 11.0476 26.9334 10.9621C27.0884 10.7872 27.2603 10.6257 27.4283 10.4624C27.4844 10.4069 27.5546 10.3619 27.6159 10.3103C27.7574 10.1909 27.8715 10.0466 28.0349 9.94444C28.181 9.85284 28.2871 9.69794 28.4163 9.56636C28.4854 9.62521 28.6011 9.53471 28.6657 9.63576C28.8797 9.65852 29.0589 9.76845 29.2505 9.85006C29.5409 9.97276 29.7279 10.1832 29.906 10.4114C30.0028 10.5328 30.0878 10.6629 30.1599 10.8C30.2163 10.9267 30.2627 11.0576 30.2986 11.1914C30.3206 11.2575 30.325 11.3302 30.3548 11.3941C30.4347 11.6005 30.5285 11.8013 30.6357 11.9953C30.6812 12.0697 30.8081 12.0964 30.8991 12.1419C31.0491 12.2174 31.1929 12.3301 31.3485 12.3562C31.5855 12.3956 31.7001 12.5666 31.8293 12.7149C31.868 12.7649 31.8947 12.823 31.9076 12.8847C31.9204 12.9464 31.919 13.0102 31.9035 13.0713ZM32.2613 10.7361C32.2276 10.9516 32.1445 11.1592 32.0928 11.3735C32.0787 11.4329 32.1181 11.5034 32.1124 11.5667C32.099 11.7166 32.0748 11.8654 32.0523 12.0148C32.0344 12.1302 32.0153 12.2463 31.9917 12.3606C31.9814 12.3951 31.9671 12.4283 31.949 12.4595C31.7973 12.3434 31.6681 12.2374 31.5282 12.1441C31.4676 12.1041 31.3833 12.103 31.3125 12.0758C31.1867 12.0286 31.0654 11.9698 30.939 11.9248C30.7593 11.8604 30.6716 11.7222 30.6211 11.5539C30.5964 11.4718 30.5806 11.3874 30.5582 11.2919C30.6374 11.3197 30.6553 11.2719 30.6739 11.2097C30.7177 11.0648 30.7654 10.921 30.8216 10.7811C30.8778 10.6412 30.9457 10.5191 31.0036 10.3858C31.0278 10.3303 31.0362 10.267 31.0547 10.2082C31.1508 9.90058 31.2322 9.59023 31.2406 9.26433C31.2498 9.07255 31.2053 8.88199 31.112 8.71358C31.0783 8.63578 31.0665 8.55042 31.0778 8.46652C31.0893 8.36814 31.1081 8.27072 31.1339 8.17504C31.1378 8.15969 31.1429 8.14465 31.1491 8.13007C31.248 8.16006 31.3391 8.21095 31.4161 8.27921C31.4931 8.34746 31.5542 8.43146 31.5951 8.52537C31.6473 8.63197 31.6659 8.75355 31.7041 8.86681C31.7215 8.91845 31.7574 8.96453 31.7709 9.01616C31.8147 9.1866 31.922 9.32651 31.9889 9.48474C32.0821 9.70405 32.1495 9.93334 32.2405 10.151C32.3236 10.3458 32.2916 10.5457 32.2613 10.7361Z" fill="#272525"/>
</svg>
